<svg width="549" height="701" viewBox="0 0 549 701" fill="none" xmlns="http://www.w3.org/2000/svg">
<path fill-rule="evenodd" clip-rule="evenodd" d="M66.794 497.559C66.232 498.818 57.724 518.747 47.886 541.847L30 583.847L40.08 584.134C51.616 584.462 50.447 585.285 55.064 573.582L58.325 565.317L76.702 565.582L95.078 565.847L98.702 575.095L102.325 584.342L113.044 584.345C121.209 584.346 123.648 584.049 123.282 583.097C123.018 582.41 114.554 562.497 104.473 538.847L86.145 495.847L76.981 495.559C68.264 495.286 67.766 495.384 66.794 497.559ZM152.03 497.241C140.595 501.191 133.825 510.419 133.825 522.058C133.825 536.857 140.15 542.902 162.325 549.297C175.176 553.002 179.021 554.994 179.866 558.381C182.666 569.617 162.194 571.137 147.325 560.798L142.325 557.322L137.093 563.084C128.911 572.097 129.102 572.921 140.825 579.216C149.411 583.827 157.171 585.728 167.325 585.707C188.393 585.665 199.825 576.17 199.825 558.716C199.825 543.608 193.72 537.765 171.125 531.249C156.264 526.964 153.825 525.439 153.825 520.431C153.825 512.633 167.006 511.202 179.63 517.628C183.648 519.674 187.105 521.347 187.312 521.347C187.519 521.347 189.989 518.084 192.801 514.097L197.912 506.847L195.628 504.992C185.254 496.567 164.608 492.897 152.03 497.241ZM233.03 497.241C206.745 506.32 205.591 544.709 231.359 552.814C239.74 555.45 250.676 555.171 256.748 552.166L261.604 549.762L260.247 554.273C255.852 568.877 241.235 572.222 227.194 561.837C225.136 560.315 224.898 560.491 220.314 566.915C214.189 575.498 214.212 576.091 220.811 580.073C241.235 592.397 267.082 586.017 276.598 566.304C284.888 549.129 284.019 519.416 274.89 507.928C265.659 496.313 248.442 491.918 233.03 497.241ZM305.325 499.018C298.725 500.967 292.931 502.93 292.449 503.38C291.726 504.056 294.179 517.187 295.46 519.498C295.658 519.856 299.084 519.301 303.073 518.265C307.061 517.229 310.438 516.374 310.575 516.364C310.712 516.355 310.825 531.647 310.825 550.347V584.347H320.825H330.825V539.847V495.347L324.075 495.41C319.419 495.454 313.603 496.573 305.325 499.018ZM376.825 496.238C353.047 503.919 341.646 533.68 351.868 561.388C358.813 580.211 378.825 590.397 397.797 584.763C432.76 574.38 437.081 515.484 404.106 498.776C398.019 495.692 382.876 494.283 376.825 496.238ZM467.618 496.291C443.953 503.813 432.333 535.976 443.573 562.847C452.554 584.316 478.716 592.91 498.013 580.729C525.625 563.298 523.853 513.342 495.106 498.776C488.945 495.654 473.9 494.294 467.618 496.291ZM254.509 514.29C261.208 517.332 263.73 524.763 260.308 531.38C255.845 540.01 238.732 539.869 234.231 531.164C228.035 519.183 241.184 508.241 254.509 514.29ZM395.649 516.049C409.488 526.299 409.056 557.468 394.961 565.7C382.137 573.189 368.825 560.258 368.825 540.311C368.825 520.527 383.624 507.143 395.649 516.049ZM484.182 514.723C497.989 520.492 501.635 550.076 490.037 562.234C476.475 576.452 458.121 561.209 460.118 537.388C461.607 519.626 472.15 509.696 484.182 514.723ZM82.286 534.63C84.93 541.11 86.866 546.639 86.589 546.916C86.312 547.193 81.567 547.291 76.043 547.133L66.001 546.847L71.14 534.124C73.966 527.126 76.549 521.726 76.879 522.124C77.209 522.522 79.642 528.149 82.286 534.63ZM134.825 668.29V700.347H142.325H149.825V690.347V680.347H155.085H160.346L167.128 690.347L173.909 700.347H182.898H191.886L184.159 689.172C176.965 678.766 176.566 677.923 178.366 676.922C192.582 669.017 193.68 648.152 180.317 639.847L175.49 636.847L155.158 636.54L134.825 636.233V668.29ZM201.825 668.347V700.347H226.325H250.825V693.847V687.347H233.325H215.825V680.847V674.347H231.325H246.825V667.847V661.347H231.325H215.825V655.347V649.347H233.325H250.825V642.847V636.347H226.325H201.825V668.347ZM257.825 637.002C257.825 637.407 263.56 651.842 270.57 669.081L283.316 700.425L290.186 700.136L297.057 699.847L309.88 668.347L322.702 636.847L315.607 636.55C311.705 636.387 307.997 636.451 307.367 636.693C306.737 636.934 302.685 646.633 298.363 658.246C294.04 669.858 290.36 679.216 290.185 679.04C290.009 678.864 286.323 669.299 281.994 657.784L274.123 636.847L265.974 636.557C261.492 636.397 257.825 636.597 257.825 637.002ZM358.825 668.331V700.471L377.075 700.159C397.72 699.806 402.68 698.425 410.155 690.951C421.908 679.197 422.036 657.625 410.422 646.01C402.382 637.97 398.651 636.892 377.575 636.521L358.825 636.191V668.331ZM168.119 650.412C173.565 651.924 175.914 656.84 173.555 661.788C171.552 665.986 167.556 667.333 157.075 667.341L149.825 667.347V658.347V649.347L157.075 649.353C161.063 649.356 166.033 649.832 168.119 650.412ZM393.388 651.63C402.015 656.116 405.913 666.414 402.277 675.115C398.847 683.324 393.702 686.389 382.138 687.11L373.825 687.629V668.347V649.065L382.138 649.584C386.71 649.869 391.773 650.79 393.388 651.63Z" fill="white"/>
<path d="M48 459L170.5 368.5V147.381L0 389L48 459Z" fill="#686868"/>
<path d="M275 429L379 368.5L274.5 172.5L170.5 368.5L275 429Z" fill="#686868"/>
<path d="M274.5 0L222.5 73.6903L274.5 172.5L326.674 73.6903L274.5 0Z" fill="#686868"/>
<path d="M170.5 147.381V368.5L274.5 172.5L222.5 73.6903L170.5 147.381Z" fill="#7D7D7D"/>
<path d="M501 458.5L548.5 387L379 147.597V368.5L501 458.5Z" fill="#434343"/>
<path d="M326.674 73.6903L274.5 172.5L379 368.5V147.597L326.674 73.6903Z" fill="#535353"/>
</svg>
