<svg width="144" height="172" viewBox="0 0 144 172" fill="none" xmlns="http://www.w3.org/2000/svg">
<path d="M1.5 35.5L0.5 37.5L2.5 39V49L0.5 54V59L3 60L8 67.5V70L18.5 77.5L21.5 77L24.5 75.5H29.5V76.5H32.5L41.5 72.5H44.5L48.5 77.5H55L56.5 79.5V87.5L55 88.5V93.5L60 100H62V99H66L67.5 98L69 97V93L72 91L73 86L74 82V78L75 77L76 76H79L80.5 78H82.5L83.5 76.5L87.5 75.5L89.5 74.5L91 75.5L95.5 76.5L99.5 77.5L101.5 81L103.5 83.5L99.5 88.5L98.5 93.5V103.5L101.5 108.5L97.5 110.5V114.5L96.5 115.5V116.5H99.5V122.5H95.5V121.5L92.5 118.5L87.5 117.5L85.5 116.5H80.5V107.5H77.5L76.5 109.5H72.5L70.5 107.5L69.5 105.5V104.5H62.5L63.5 105.5V109.5V111L64.5 113.282L65.5 113.5V117.5L64.5 118L63.5 119.5L62.5 121.5L61.5 124.5V126.5L60.5 127.5V131.5L61.5 133.5L66.5 142.5V148.5L67.5 149.5V153.5L73.5 164.5V170.5L75 171.5L79 171H80L86.5 170.5L87.5 169.5L91.5 168.5L101.5 157.5V156.5L102.5 155.5V149.5H103.5H104.5V148.5H105.5H106.5L107.5 147.5H108.5V141.5V139.5L108 139V137.5L108.5 136L120.5 125.5V114.5L118.5 113V105.5L117.5 105L118.5 100L119.5 98L121.5 94.5L123.5 91.5L126.5 87.5L130 84.5L135.5 79.5L138.5 74.5L140.5 69.5L143.5 63.5L142.5 60.5L131.5 64.5H128.5L127.5 63.5L126.5 61.5V59.5L117.5 52V49.5L112.5 44.5V38.5L108.5 34V33V32L109.5 31.5L105.5 27V24.5L104.5 24V23.5V22.5L103.5 21.5L102.5 20.5V19.5L101.5 19V17.5H102.5L103.5 18.5L104.5 21H106.5V17.5L105.5 16.5V14.5H100.5L99.5 13.5H98.5L96.5 15.5H95H94L92.5 14.5H91.5H90.5L89.5 13.5H88.5H87.5L86.5 12.5H83.5L81.5 10.5H79.5L77.5 11.5V16.5L72.5 16L70.5 14.5L66.5 14V11.5H64.5L63.5 10.5H60.5L59.5 9.5H58.5L57.5 8.5L56.5 7.5V6.5L57.5 5.5L58.5 4.5L57.5 3.5V2.5V1.5L56.5 0.5H52H50.5H49.5L49 1.5H48L47 1L45.5 0.5L45 1.5H41H40L38.5 2L38 2.5H37.5L37 3L36.2251 3.5H35.5L35 4L33.5 4.5L33 5H32L31.5 4H31H29H27.5H26.5L25.5 3.5L25 4L24.5 5V6L23.5 8L22.5 8.5H21L20.5 9.5H19.5L18.5 10.5L18 11L17.5 12L17 12.5V13.5V14.5L16.5 15L16 15.5V16L16.5 18L15.5 19L14.5 19.5L13.5 20.5L13 21H11.5V22L10.5 23L9.5 23.5L9 24L7.5 25.5L6.5 26V27L5.5 28.5V29V30.5L4.5 31.5L3.5 32.5L2.5 33L1.5 35.5Z" fill="white"/>
<path d="M62.5 104.5H69.5V105.5L70.5 107.5L72.5 109.5H76.5L77.5 107.5H80.5V116.5H85.5L87.5 117.5L92.5 118.5L95.5 121.5V122.5H99.5V116.5H96.5V115.5L97.5 114.5V110.5L101.5 108.5L98.5 103.5V93.5L99.5 88.5L103.5 83.5L101.5 81L99.5 77.5L95.5 76.5L91 75.5L89.5 74.5L87.5 75.5L83.5 76.5L82.5 78H80.5L79 76H76L75 77L74 78V82L73 86L72 91L69 93V97L67.5 98L66 99H62V100H60L62.5 104.5Z" fill="#242424"/>
<path d="M126.5 140.5L127.5 138.5L128.5 137.5V129.5L129.5 128.5L131.5 127.5L133.5 126.5L135 125.5L136.5 124V122.5L140 119L141 121.5V126.5L140 128.5H138.5V132.5H137.5V135.5H136.5V138.5H135.5V141L134.5 141.5V144.5L132.5 148.5L130.5 149.5H128.5L126.5 146.5V140.5Z" fill="white"/>
<path d="M22.86 28.04C22.2867 28.04 21.7733 28.1533 21.32 28.38C20.88 28.6067 20.5067 28.9333 20.2 29.36C19.8933 29.7733 19.66 30.28 19.5 30.88C19.3533 31.48 19.28 32.1533 19.28 32.9C19.28 33.9133 19.4 34.78 19.64 35.5C19.8933 36.2067 20.2867 36.7467 20.82 37.12C21.3533 37.4933 22.0333 37.68 22.86 37.68C23.4467 37.68 24.0267 37.6133 24.6 37.48C25.1867 37.3467 25.82 37.16 26.5 36.92V39.46C25.8733 39.7133 25.2533 39.9 24.64 40.02C24.0267 40.14 23.34 40.2 22.58 40.2C21.1133 40.2 19.9 39.9 18.94 39.3C17.9933 38.6867 17.2933 37.8333 16.84 36.74C16.3867 35.6333 16.16 34.3467 16.16 32.88C16.16 31.8 16.3067 30.8133 16.6 29.92C16.8933 29.0133 17.32 28.2333 17.88 27.58C18.4533 26.9267 19.1533 26.42 19.98 26.06C20.82 25.7 21.78 25.52 22.86 25.52C23.5667 25.52 24.2733 25.6133 24.98 25.8C25.7 25.9733 26.3867 26.2133 27.04 26.52L26.06 28.98C25.5267 28.7267 24.9867 28.5067 24.44 28.32C23.9067 28.1333 23.38 28.04 22.86 28.04ZM39.2144 34.52C39.2144 35.4267 39.0877 36.2333 38.8344 36.94C38.5944 37.6467 38.241 38.2467 37.7744 38.74C37.321 39.22 36.7677 39.5867 36.1144 39.84C35.461 40.08 34.721 40.2 33.8944 40.2C33.1344 40.2 32.4277 40.08 31.7744 39.84C31.1344 39.5867 30.581 39.22 30.1144 38.74C29.6477 38.2467 29.281 37.6467 29.0144 36.94C28.761 36.2333 28.6344 35.4267 28.6344 34.52C28.6344 33.3067 28.8477 32.2867 29.2744 31.46C29.701 30.62 30.3144 29.98 31.1144 29.54C31.9144 29.1 32.861 28.88 33.9544 28.88C34.981 28.88 35.8877 29.1 36.6744 29.54C37.461 29.98 38.081 30.62 38.5344 31.46C38.9877 32.2867 39.2144 33.3067 39.2144 34.52ZM31.6744 34.52C31.6744 35.24 31.7477 35.8467 31.8944 36.34C32.0544 36.82 32.301 37.1867 32.6344 37.44C32.9677 37.68 33.401 37.8 33.9344 37.8C34.4677 37.8 34.8944 37.68 35.2144 37.44C35.5477 37.1867 35.7877 36.82 35.9344 36.34C36.0944 35.8467 36.1744 35.24 36.1744 34.52C36.1744 33.8 36.0944 33.2 35.9344 32.72C35.7877 32.24 35.5477 31.88 35.2144 31.64C34.881 31.4 34.4477 31.28 33.9144 31.28C33.1277 31.28 32.5544 31.5533 32.1944 32.1C31.8477 32.6333 31.6744 33.44 31.6744 34.52ZM47.8772 28.88C49.0505 28.88 49.9905 29.2 50.6972 29.84C51.4039 30.4667 51.7572 31.48 51.7572 32.88V40H48.7772V33.62C48.7772 32.8333 48.6372 32.2467 48.3572 31.86C48.0772 31.46 47.6305 31.26 47.0172 31.26C46.1105 31.26 45.4905 31.5733 45.1572 32.2C44.8239 32.8133 44.6572 33.7 44.6572 34.86V40H41.6772V29.08H43.9572L44.3572 30.48H44.5172C44.7572 30.1067 45.0505 29.8067 45.3972 29.58C45.7439 29.34 46.1305 29.1667 46.5572 29.06C46.9839 28.94 47.4239 28.88 47.8772 28.88ZM60.8617 31.32H58.2817V40H55.3017V31.32H53.6617V29.88L55.3017 29.08V28.28C55.3017 27.3467 55.4551 26.6267 55.7617 26.12C56.0817 25.6 56.5284 25.2333 57.1017 25.02C57.6884 24.8067 58.3751 24.7 59.1617 24.7C59.7484 24.7 60.2751 24.7467 60.7417 24.84C61.2217 24.9333 61.6084 25.04 61.9017 25.16L61.1417 27.34C60.9151 27.2733 60.6684 27.2133 60.4017 27.16C60.1351 27.0933 59.8284 27.06 59.4817 27.06C59.0684 27.06 58.7617 27.1867 58.5617 27.44C58.3751 27.6933 58.2817 28.0133 58.2817 28.4V29.08H60.8617V31.32ZM65.5417 40H62.5617V24.8H65.5417V40ZM71.6494 29.08V40H68.6694V29.08H71.6494ZM70.1694 24.8C70.6094 24.8 70.9894 24.9067 71.3094 25.12C71.6294 25.32 71.7894 25.7 71.7894 26.26C71.7894 26.8067 71.6294 27.1867 71.3094 27.4C70.9894 27.6133 70.6094 27.72 70.1694 27.72C69.716 27.72 69.3294 27.6133 69.0094 27.4C68.7027 27.1867 68.5494 26.8067 68.5494 26.26C68.5494 25.7 68.7027 25.32 69.0094 25.12C69.3294 24.9067 69.716 24.8 70.1694 24.8ZM79.2031 40.2C78.1231 40.2 77.2031 40.0067 76.4431 39.62C75.6831 39.22 75.1031 38.6067 74.7031 37.78C74.3031 36.9533 74.1031 35.8933 74.1031 34.6C74.1031 33.2667 74.3298 32.18 74.7831 31.34C75.2365 30.5 75.8631 29.88 76.6631 29.48C77.4765 29.08 78.4098 28.88 79.4631 28.88C80.2098 28.88 80.8565 28.9533 81.4031 29.1C81.9631 29.2467 82.4498 29.42 82.8631 29.62L81.9831 31.92C81.5165 31.7333 81.0765 31.58 80.6631 31.46C80.2631 31.34 79.8631 31.28 79.4631 31.28C78.9431 31.28 78.5098 31.4067 78.1631 31.66C77.8165 31.9 77.5565 32.2667 77.3831 32.76C77.2231 33.24 77.1431 33.8467 77.1431 34.58C77.1431 35.3 77.2298 35.9 77.4031 36.38C77.5898 36.8467 77.8565 37.2 78.2031 37.44C78.5498 37.6667 78.9698 37.78 79.4631 37.78C80.0898 37.78 80.6431 37.7 81.1231 37.54C81.6031 37.3667 82.0698 37.1333 82.5231 36.84V39.38C82.0698 39.6733 81.5898 39.88 81.0831 40C80.5898 40.1333 79.9631 40.2 79.2031 40.2ZM89.6366 37.82C89.9699 37.82 90.2899 37.7867 90.5966 37.72C90.9032 37.6533 91.2099 37.5733 91.5166 37.48V39.7C91.1966 39.8333 90.7966 39.9467 90.3166 40.04C89.8499 40.1467 89.3366 40.2 88.7766 40.2C88.1232 40.2 87.5366 40.0933 87.0166 39.88C86.5099 39.6667 86.1032 39.3 85.7966 38.78C85.5032 38.2467 85.3566 37.5133 85.3566 36.58V31.32H83.9366V30.06L85.5766 29.06L86.4366 26.76H88.3366V29.08H91.3966V31.32H88.3366V36.58C88.3366 36.9933 88.4566 37.3067 88.6966 37.52C88.9366 37.72 89.2499 37.82 89.6366 37.82ZM22.84 59L19.4 47.8H19.32C19.3333 48.0667 19.3533 48.4667 19.38 49C19.4067 49.5333 19.4333 50.1067 19.46 50.72C19.4867 51.32 19.5 51.8667 19.5 52.36V59H16.8V44.72H20.92L24.3 55.64H24.36L27.94 44.72H32.06V59H29.24V52.24C29.24 51.7867 29.2467 51.2667 29.26 50.68C29.2867 50.0933 29.3067 49.54 29.32 49.02C29.3467 48.4867 29.3667 48.0867 29.38 47.82H29.3L25.62 59H22.84ZM38.4072 48.08V59H35.4272V48.08H38.4072ZM36.9272 43.8C37.3672 43.8 37.7472 43.9067 38.0672 44.12C38.3872 44.32 38.5472 44.7 38.5472 45.26C38.5472 45.8067 38.3872 46.1867 38.0672 46.4C37.7472 46.6133 37.3672 46.72 36.9272 46.72C36.4739 46.72 36.0872 46.6133 35.7672 46.4C35.4605 46.1867 35.3072 45.8067 35.3072 45.26C35.3072 44.7 35.4605 44.32 35.7672 44.12C36.0872 43.9067 36.4739 43.8 36.9272 43.8ZM47.7209 47.88C48.8943 47.88 49.8343 48.2 50.5409 48.84C51.2476 49.4667 51.6009 50.48 51.6009 51.88V59H48.6209V52.62C48.6209 51.8333 48.4809 51.2467 48.2009 50.86C47.9209 50.46 47.4743 50.26 46.8609 50.26C45.9543 50.26 45.3343 50.5733 45.0009 51.2C44.6676 51.8133 44.5009 52.7 44.5009 53.86V59H41.5209V48.08H43.8009L44.2009 49.48H44.3609C44.6009 49.1067 44.8943 48.8067 45.2409 48.58C45.5876 48.34 45.9743 48.1667 46.4009 48.06C46.8276 47.94 47.2676 47.88 47.7209 47.88ZM59.1655 47.88C60.1788 47.88 61.0455 48.0733 61.7655 48.46C62.4988 48.8467 63.0655 49.4067 63.4655 50.14C63.8655 50.8733 64.0655 51.7733 64.0655 52.84V54.28H57.0255C57.0521 55.12 57.2988 55.78 57.7655 56.26C58.2455 56.74 58.9055 56.98 59.7455 56.98C60.4521 56.98 61.0921 56.9133 61.6655 56.78C62.2388 56.6333 62.8321 56.4133 63.4455 56.12V58.42C62.9121 58.6867 62.3455 58.88 61.7455 59C61.1588 59.1333 60.4455 59.2 59.6055 59.2C58.5121 59.2 57.5455 59 56.7055 58.6C55.8655 58.1867 55.2055 57.5667 54.7255 56.74C54.2455 55.9133 54.0055 54.8733 54.0055 53.62C54.0055 52.34 54.2188 51.28 54.6455 50.44C55.0855 49.5867 55.6921 48.9467 56.4655 48.52C57.2388 48.0933 58.1388 47.88 59.1655 47.88ZM59.1855 50C58.6121 50 58.1321 50.1867 57.7455 50.56C57.3721 50.9333 57.1521 51.5133 57.0855 52.3H61.2655C61.2655 51.86 61.1855 51.4667 61.0255 51.12C60.8788 50.7733 60.6521 50.5 60.3455 50.3C60.0388 50.1 59.6521 50 59.1855 50ZM72.5819 47.88C72.7285 47.88 72.9019 47.8867 73.1019 47.9C73.3019 47.9133 73.4619 47.9333 73.5819 47.96L73.3619 50.76C73.2685 50.7333 73.1285 50.7133 72.9419 50.7C72.7685 50.6733 72.6152 50.66 72.4819 50.66C72.0952 50.66 71.7219 50.7133 71.3619 50.82C71.0019 50.9133 70.6752 51.0667 70.3819 51.28C70.1019 51.4933 69.8752 51.78 69.7019 52.14C69.5419 52.4867 69.4619 52.92 69.4619 53.44V59H66.4819V48.08H68.7419L69.1819 49.92H69.3219C69.5352 49.5467 69.8019 49.2067 70.1219 48.9C70.4419 48.5933 70.8085 48.3467 71.2219 48.16C71.6485 47.9733 72.1019 47.88 72.5819 47.88ZM79.6533 47.86C81.1199 47.86 82.2399 48.18 83.0133 48.82C83.7999 49.4467 84.1933 50.4133 84.1933 51.72V59H82.1133L81.5333 57.52H81.4533C81.1466 57.9067 80.8266 58.2267 80.4933 58.48C80.1733 58.7333 79.7999 58.9133 79.3733 59.02C78.9599 59.14 78.4466 59.2 77.8333 59.2C77.1933 59.2 76.6133 59.08 76.0933 58.84C75.5866 58.5867 75.1866 58.2067 74.8933 57.7C74.5999 57.18 74.4533 56.5267 74.4533 55.74C74.4533 54.58 74.8599 53.7267 75.6733 53.18C76.4866 52.62 77.7066 52.3133 79.3333 52.26L81.2333 52.2V51.72C81.2333 51.1467 81.0799 50.7267 80.7733 50.46C80.4799 50.1933 80.0666 50.06 79.5333 50.06C78.9999 50.06 78.4799 50.14 77.9733 50.3C77.4666 50.4467 76.9599 50.6333 76.4533 50.86L75.4733 48.84C76.0599 48.5333 76.7066 48.2933 77.4133 48.12C78.1333 47.9467 78.8799 47.86 79.6533 47.86ZM80.0733 53.98C79.1133 54.0067 78.4466 54.18 78.0733 54.5C77.6999 54.82 77.5133 55.24 77.5133 55.76C77.5133 56.2133 77.6466 56.54 77.9133 56.74C78.1799 56.9267 78.5266 57.02 78.9533 57.02C79.5933 57.02 80.1333 56.8333 80.5733 56.46C81.0133 56.0733 81.2333 55.5333 81.2333 54.84V53.94L80.0733 53.98ZM90.2236 59H87.2436V43.8H90.2236V59ZM100.957 55.76C100.957 56.4933 100.784 57.12 100.437 57.64C100.091 58.1467 99.5707 58.5333 98.8773 58.8C98.184 59.0667 97.324 59.2 96.2973 59.2C95.5373 59.2 94.884 59.1467 94.3373 59.04C93.7907 58.9467 93.244 58.7867 92.6973 58.56V56.1C93.284 56.3667 93.9173 56.5867 94.5973 56.76C95.2773 56.9333 95.8773 57.02 96.3973 57.02C96.984 57.02 97.3973 56.9333 97.6373 56.76C97.8907 56.5867 98.0173 56.36 98.0173 56.08C98.0173 55.8933 97.964 55.7267 97.8573 55.58C97.764 55.4333 97.5507 55.2667 97.2173 55.08C96.884 54.8933 96.364 54.6533 95.6573 54.36C94.9773 54.0667 94.4173 53.78 93.9773 53.5C93.5373 53.2067 93.2107 52.86 92.9973 52.46C92.784 52.0467 92.6773 51.5333 92.6773 50.92C92.6773 49.9067 93.0707 49.1467 93.8573 48.64C94.644 48.1333 95.6907 47.88 96.9973 47.88C97.6773 47.88 98.324 47.9467 98.9373 48.08C99.5507 48.2133 100.184 48.4333 100.837 48.74L99.9373 50.88C99.5773 50.72 99.2307 50.58 98.8973 50.46C98.564 50.34 98.2373 50.2467 97.9173 50.18C97.6107 50.1133 97.2907 50.08 96.9573 50.08C96.5173 50.08 96.184 50.14 95.9573 50.26C95.744 50.38 95.6373 50.56 95.6373 50.8C95.6373 50.9733 95.6907 51.1333 95.7973 51.28C95.9173 51.4133 96.1373 51.56 96.4573 51.72C96.7907 51.88 97.2773 52.0933 97.9173 52.36C98.544 52.6133 99.084 52.88 99.5373 53.16C99.9907 53.4267 100.337 53.7667 100.577 54.18C100.831 54.58 100.957 55.1067 100.957 55.76Z" fill="#242424"/>
</svg>
