<svg width="400" height="83" viewBox="0 0 400 83" fill="none" xmlns="http://www.w3.org/2000/svg">
<path d="M16.7539 61.3867H16.6836C16.457 62.0195 16.2109 62.6406 15.9453 63.25C15.6797 63.8594 13.7188 68.1094 10.0625 76H8.02344L7.29688 58.8672H9.28906L9.65234 69.4258L9.67578 70.457C9.67578 71.2773 9.63672 72.2852 9.55859 73.4805H9.62891C10.3242 71.5664 10.9336 70.0703 11.457 68.9922L16.2031 58.8672H18.2891L18.793 68.9453C18.8555 70.0703 18.8867 70.918 18.8867 71.4883C18.8867 72.0586 18.8867 72.3984 18.8867 72.5078V73.4805H18.9922C19.5625 71.7773 20.0742 70.3945 20.5273 69.332L25.0625 58.8672H27.1953L19.4141 76H17.4219L16.8477 64.6914C16.7852 63.5508 16.7539 62.4492 16.7539 61.3867ZM31.9569 58.8672H33.9256L30.2811 76H28.3123L31.9569 58.8672ZM44.4059 58.8672C47.8903 58.8672 49.6325 60.2969 49.6325 63.1562C49.6325 65.875 48.195 67.6289 45.32 68.418L48.1208 76H45.9411L43.4919 68.875H40.5387L39.027 76H37.0348L40.6559 58.8672H44.4059ZM42.8708 67.1641C44.3786 67.1641 45.5387 66.832 46.3512 66.168C47.1637 65.5039 47.57 64.5508 47.57 63.3086C47.57 62.3633 47.3044 61.6797 46.7731 61.2578C46.2497 60.8281 45.3942 60.6133 44.2067 60.6133H42.2614L40.902 67.1641H42.8708ZM52.8589 76L56.48 58.8672H65.0933L64.7183 60.6602H58.0855L56.937 66.1562H63.1128L62.773 67.9375H56.5737L55.2378 74.2188H61.8589L61.4722 76H52.8589ZM78.4016 70.5508L75.5305 76H73.3156L82.6789 58.8672H84.718L86.8742 76H84.882L84.2141 70.5508H78.4016ZM84.0031 68.7227L83.593 65.2188C83.3977 63.7891 83.2844 62.4219 83.2531 61.1172C82.9719 61.7812 82.6555 62.4609 82.3039 63.1562C81.9602 63.8438 80.9875 65.6992 79.3859 68.7227H84.0031ZM101.409 76L96.0186 61.668H95.9483C95.7061 63.3555 95.417 64.9883 95.0811 66.5664L93.0655 76H91.167L94.7881 58.8672H96.8975L102.276 73.1641H102.347C102.581 71.4141 102.862 69.832 103.19 68.418L105.23 58.8672H107.151L103.53 76H101.409ZM117.831 58.8672C119.987 58.8672 121.624 59.4531 122.741 60.625C123.866 61.7891 124.429 63.4883 124.429 65.7227C124.429 67.7617 124.018 69.5625 123.198 71.125C122.378 72.6875 121.206 73.8906 119.683 74.7344C118.159 75.5781 116.374 76 114.327 76H110.202L113.823 58.8672H117.831ZM114.456 74.2773C116.042 74.2773 117.429 73.9219 118.616 73.2109C119.804 72.5 120.718 71.4961 121.358 70.1992C121.999 68.8945 122.319 67.3984 122.319 65.7109C122.319 64.0234 121.917 62.75 121.112 61.8906C120.308 61.0234 119.128 60.5898 117.573 60.5898H115.487L112.558 74.2773H114.456ZM146.772 60.4023C145.405 60.4023 144.186 60.7852 143.116 61.5508C142.045 62.3086 141.194 63.4219 140.561 64.8906C139.936 66.3594 139.624 67.9492 139.624 69.6602C139.624 71.1211 140.003 72.2891 140.76 73.1641C141.518 74.0312 142.569 74.4648 143.913 74.4648C144.999 74.4648 146.256 74.2422 147.686 73.7969V75.543C147.022 75.7852 146.378 75.9609 145.753 76.0703C145.128 76.1797 144.397 76.2344 143.561 76.2344C141.67 76.2344 140.186 75.6523 139.108 74.4883C138.03 73.3164 137.491 71.7188 137.491 69.6953C137.491 67.6641 137.905 65.7734 138.733 64.0234C139.561 62.2656 140.667 60.9258 142.049 60.0039C143.44 59.082 145.014 58.6211 146.772 58.6211C148.303 58.6211 149.663 58.9336 150.85 59.5586L150.042 61.2109C148.963 60.6719 147.874 60.4023 146.772 60.4023ZM155.647 70.5508L152.776 76H150.561L159.924 58.8672H161.963L164.12 76H162.127L161.459 70.5508H155.647ZM161.248 68.7227L160.838 65.2188C160.643 63.7891 160.53 62.4219 160.498 61.1172C160.217 61.7812 159.901 62.4609 159.549 63.1562C159.205 63.8438 158.233 65.6992 156.631 68.7227H161.248ZM176.451 58.8672C179.826 58.8672 181.514 60.1797 181.514 62.8047C181.514 63.8984 181.174 64.8281 180.494 65.5938C179.815 66.3516 178.858 66.8438 177.623 67.0703V67.1875C178.514 67.4375 179.201 67.8672 179.686 68.4766C180.17 69.0859 180.412 69.8242 180.412 70.6914C180.412 72.3398 179.819 73.6406 178.631 74.5938C177.444 75.5312 175.854 76 173.862 76H168.436L172.057 58.8672H176.451ZM175.42 66.2031C176.647 66.2031 177.619 65.918 178.338 65.3477C179.065 64.7773 179.428 64 179.428 63.0156C179.428 62.1953 179.166 61.5859 178.643 61.1875C178.119 60.7891 177.303 60.5898 176.194 60.5898H173.721L172.514 66.2031H175.42ZM173.908 74.3008C175.315 74.3008 176.397 73.9883 177.155 73.3633C177.92 72.7305 178.303 71.8398 178.303 70.6914C178.303 69.7852 178.01 69.0938 177.424 68.6172C176.846 68.1328 176.01 67.8906 174.916 67.8906H172.151L170.791 74.3008H173.908ZM188.584 58.8672H190.576L187.342 74.1953H193.963L193.576 76H184.963L188.584 58.8672ZM198.514 76L202.135 58.8672H210.748L210.373 60.6602H203.74L202.592 66.1562H208.768L208.428 67.9375H202.228L200.893 74.2188H207.514L207.127 76H198.514ZM231.38 60.4023C230.013 60.4023 228.795 60.7852 227.724 61.5508C226.654 62.3086 225.802 63.4219 225.17 64.8906C224.545 66.3594 224.232 67.9492 224.232 69.6602C224.232 71.1211 224.611 72.2891 225.369 73.1641C226.127 74.0312 227.177 74.4648 228.521 74.4648C229.607 74.4648 230.865 74.2422 232.295 73.7969V75.543C231.63 75.7852 230.986 75.9609 230.361 76.0703C229.736 76.1797 229.005 76.2344 228.17 76.2344C226.279 76.2344 224.795 75.6523 223.716 74.4883C222.638 73.3164 222.099 71.7188 222.099 69.6953C222.099 67.6641 222.513 65.7734 223.341 64.0234C224.17 62.2656 225.275 60.9258 226.658 60.0039C228.048 59.082 229.623 58.6211 231.38 58.6211C232.912 58.6211 234.271 58.9336 235.459 59.5586L234.65 61.2109C233.572 60.6719 232.482 60.4023 231.38 60.4023ZM246.443 58.5977C248.357 58.5977 249.857 59.2031 250.943 60.4141C252.037 61.6172 252.583 63.2734 252.583 65.3828C252.583 67.4844 252.236 69.3633 251.54 71.0195C250.853 72.6758 249.872 73.9609 248.599 74.875C247.318 75.7812 245.837 76.2344 244.158 76.2344C242.158 76.2344 240.599 75.6523 239.482 74.4883C238.365 73.3086 237.806 71.6758 237.806 69.5898C237.806 67.5039 238.181 65.6133 238.931 63.918C239.681 62.2227 240.708 60.9141 242.013 59.9922C243.318 59.0625 244.794 58.5977 246.443 58.5977ZM240.736 64.8555C240.205 66.2695 239.939 67.7891 239.939 69.4141C239.939 71.0312 240.318 72.2773 241.076 73.1523C241.841 74.0273 242.853 74.4648 244.111 74.4648C245.369 74.4648 246.462 74.0898 247.392 73.3398C248.322 72.582 249.064 71.4922 249.619 70.0703C250.173 68.6484 250.451 67.1133 250.451 65.4648C250.451 63.8086 250.083 62.5469 249.349 61.6797C248.615 60.8125 247.615 60.3789 246.349 60.3789C245.091 60.3789 243.978 60.7734 243.009 61.5625C242.04 62.3438 241.283 63.4414 240.736 64.8555ZM263.884 58.8672C267.368 58.8672 269.111 60.2969 269.111 63.1562C269.111 65.875 267.673 67.6289 264.798 68.418L267.599 76H265.419L262.97 68.875H260.017L258.505 76H256.513L260.134 58.8672H263.884ZM262.349 67.1641C263.857 67.1641 265.017 66.832 265.829 66.168C266.642 65.5039 267.048 64.5508 267.048 63.3086C267.048 62.3633 266.783 61.6797 266.251 61.2578C265.728 60.8281 264.872 60.6133 263.685 60.6133H261.74L260.38 67.1641H262.349ZM279.825 58.8672C281.497 58.8672 282.763 59.2383 283.622 59.9805C284.482 60.7148 284.911 61.8164 284.911 63.2852C284.911 65.2305 284.267 66.7148 282.978 67.7383C281.696 68.7539 279.821 69.2617 277.353 69.2617H275.771L274.329 76H272.337L275.958 58.8672H279.825ZM277.693 67.5508C279.38 67.5508 280.661 67.1953 281.536 66.4844C282.411 65.7734 282.849 64.7305 282.849 63.3555C282.849 62.3867 282.579 61.6836 282.04 61.2461C281.509 60.8086 280.673 60.5898 279.532 60.5898H277.622L276.134 67.5508H277.693ZM297.478 58.5977C299.392 58.5977 300.892 59.2031 301.978 60.4141C303.071 61.6172 303.618 63.2734 303.618 65.3828C303.618 67.4844 303.27 69.3633 302.575 71.0195C301.888 72.6758 300.907 73.9609 299.634 74.875C298.353 75.7812 296.872 76.2344 295.192 76.2344C293.192 76.2344 291.634 75.6523 290.517 74.4883C289.399 73.3086 288.841 71.6758 288.841 69.5898C288.841 67.5039 289.216 65.6133 289.966 63.918C290.716 62.2227 291.743 60.9141 293.048 59.9922C294.353 59.0625 295.829 58.5977 297.478 58.5977ZM291.77 64.8555C291.239 66.2695 290.974 67.7891 290.974 69.4141C290.974 71.0312 291.353 72.2773 292.11 73.1523C292.876 74.0273 293.888 74.4648 295.145 74.4648C296.403 74.4648 297.497 74.0898 298.427 73.3398C299.356 72.582 300.099 71.4922 300.653 70.0703C301.208 68.6484 301.485 67.1133 301.485 65.4648C301.485 63.8086 301.118 62.5469 300.384 61.6797C299.649 60.8125 298.649 60.3789 297.384 60.3789C296.126 60.3789 295.013 60.7734 294.044 61.5625C293.075 62.3438 292.317 63.4414 291.77 64.8555ZM314.919 58.8672C318.403 58.8672 320.145 60.2969 320.145 63.1562C320.145 65.875 318.708 67.6289 315.833 68.418L318.634 76H316.454L314.005 68.875H311.052L309.54 76H307.548L311.169 58.8672H314.919ZM313.384 67.1641C314.891 67.1641 316.052 66.832 316.864 66.168C317.677 65.5039 318.083 64.5508 318.083 63.3086C318.083 62.3633 317.817 61.6797 317.286 61.2578C316.763 60.8281 315.907 60.6133 314.72 60.6133H312.774L311.415 67.1641H313.384ZM326.079 70.5508L323.208 76H320.993L330.356 58.8672H332.395L334.551 76H332.559L331.891 70.5508H326.079ZM331.68 68.7227L331.27 65.2188C331.075 63.7891 330.962 62.4219 330.93 61.1172C330.649 61.7812 330.333 62.4609 329.981 63.1562C329.637 63.8438 328.665 65.6992 327.063 68.7227H331.68ZM339.864 76L343.11 60.6367H338.352L338.739 58.8672H350.282L349.93 60.6367H345.149L341.879 76H339.864ZM354.938 58.8672H356.907L353.262 76H351.293L354.938 58.8672ZM369.402 58.5977C371.317 58.5977 372.817 59.2031 373.902 60.4141C374.996 61.6172 375.543 63.2734 375.543 65.3828C375.543 67.4844 375.195 69.3633 374.5 71.0195C373.813 72.6758 372.832 73.9609 371.559 74.875C370.277 75.7812 368.797 76.2344 367.117 76.2344C365.117 76.2344 363.559 75.6523 362.442 74.4883C361.324 73.3086 360.766 71.6758 360.766 69.5898C360.766 67.5039 361.141 65.6133 361.891 63.918C362.641 62.2227 363.668 60.9141 364.973 59.9922C366.277 59.0625 367.754 58.5977 369.402 58.5977ZM363.695 64.8555C363.164 66.2695 362.899 67.7891 362.899 69.4141C362.899 71.0312 363.277 72.2773 364.035 73.1523C364.801 74.0273 365.813 74.4648 367.07 74.4648C368.328 74.4648 369.422 74.0898 370.352 73.3398C371.281 72.582 372.024 71.4922 372.578 70.0703C373.133 68.6484 373.41 67.1133 373.41 65.4648C373.41 63.8086 373.043 62.5469 372.309 61.6797C371.574 60.8125 370.574 60.3789 369.309 60.3789C368.051 60.3789 366.938 60.7734 365.969 61.5625C365 62.3438 364.242 63.4414 363.695 64.8555ZM389.691 76L384.301 61.668H384.23C383.988 63.3555 383.699 64.9883 383.363 66.5664L381.348 76H379.449L383.07 58.8672H385.18L390.559 73.1641H390.629C390.863 71.4141 391.145 69.832 391.473 68.418L393.512 58.8672H395.434L391.812 76H389.691Z" fill="white"/>
<path fill-rule="evenodd" clip-rule="evenodd" d="M0 40H54.5L61.5 0.999984L111 0.999969C121 4.5 123.5 20 109 26.5C117.5 33 119 47 105.5 53H0V40ZM76 31.5L74 39.5H84H89H94C98 36.5 97 33 93 31.5H76ZM79 12.5L77 20.5H97C101 17.5 100 14 96 12.5H79Z" fill="white"/>
<path d="M124.5 0.999969H144.5L138.5 37.5H157L149 52H115L124.5 0.999969Z" fill="white"/>
<path fill-rule="evenodd" clip-rule="evenodd" d="M180.5 0.5L150.5 52H168L171 46.5H195.5L197 52H234.5L236 42L246.5 33.5L255 52H366L367.5 51.5H378L379.5 50.5V49.5L377.5 48.5L374.5 47.5L367.5 46.5L368 45.5L376.5 46.5L393 52L394.5 51.5V48.5L377 41.5L369.5 40.5L368 39.5H296.5L298.5 32.5H325.5L327.5 21H300.5L302.5 13.5H335.5L337.5 1.5H283.5L273.5 48.5L261 21L282 1.5H258.5L243 16.5H240.5L243.5 0.5H224.5L215.5 48.5L207.5 0.5H180.5ZM190.5 15.5L179.5 32.5H192.5L190.5 15.5Z" fill="white"/>
<path d="M383 42L385 41H395V43V45H389L383 42Z" fill="white"/>
<path d="M395.5 42V43V44H398.5L400 43L397.75 42H395.5Z" fill="white"/>
<path d="M395.5 49V50V51H398.5L400 50L397.75 49H395.5Z" fill="white"/>
</svg>
