<svg width="387" height="257" viewBox="0 0 387 257" fill="none" xmlns="http://www.w3.org/2000/svg">
<path fill-rule="evenodd" clip-rule="evenodd" d="M8.5 2.86099C-0.461003 8.39599 0.0119975 1.39301 0.0059975 128.601C-2.49944e-06 247.706 -0.114001 244.878 4.886 250.373C10.339 256.367 -1.96001 256 193.508 256C395.357 256 377.526 256.679 383.166 248.773L385.5 245.5L385.766 129.495L386.032 13.489L383.766 8.99499C379.341 0.218992 398.066 1.003 193 1.005C18.045 1.007 11.392 1.07399 8.5 2.86099ZM373.965 13.934C375.878 17.509 375.355 241.503 373.429 243.429C372.012 244.845 354.263 245 192.985 245H14.113L12.557 242.777C10.699 240.125 10.137 19.401 11.975 14.565L12.95 12H192.94C369.867 12 372.947 12.033 373.965 13.934ZM204.5 43.841L201.5 44.52V85.972V127.425L205.346 128.334C207.59 128.865 210.92 128.879 213.346 128.368L217.5 127.493L217.773 109.746L218.046 92H233.523H249V109.531C249 129.529 248.506 128.5 258.096 128.5C267.607 128.5 267 131.397 267 86C267 40.457 267.7 43.625 257.63 43.625C248.635 43.625 249 42.888 249 61.059V77H233.5H218V61.059C218 52.291 217.663 44.91 217.25 44.656C215.723 43.717 207.403 43.185 204.5 43.841ZM294.493 45.295C279.94 52.235 275.806 70.736 286.17 82.541C288.157 84.803 293.306 88.039 300.636 91.631C315.201 98.767 317.843 102.023 315.043 109.387C312.508 116.055 299.099 116.964 287.965 111.221C280.433 107.337 279 107.947 279 115.041C279 121.964 279.633 122.911 286.401 126.113C295.024 130.193 310.093 130.35 318.337 126.447C330.451 120.711 335.218 111.907 333.529 98.387C332.428 89.571 328.685 85.607 314.987 78.747C299.338 70.91 296.218 67.346 299.483 61.034C302.444 55.306 311.247 54.702 321.272 59.538C327.44 62.514 328.679 62.229 329.541 57.631C331.445 47.482 326.432 43.794 310 43.253C300.584 42.943 298.983 43.154 294.493 45.295ZM58.655 45.829C56.13 48.618 56.132 125.036 58.657 127.128C61.002 129.071 72.783 128.958 74.033 126.98C74.548 126.166 74.976 118.413 74.985 109.75L75 94H79.096C85.714 94 88.676 96.475 93.083 105.69C95.237 110.195 97 114.302 97 114.816C97 117.96 102.261 127.149 104.563 128.024C107.899 129.292 114.158 129.271 117.556 127.979C120.74 126.768 120.576 124.538 116.665 115.9C115.321 112.93 113.19 108.025 111.929 105C109.339 98.782 104.429 91.379 102.372 90.589C100.62 89.917 100.581 88 102.32 88C104.572 88 111.65 81.256 113.509 77.341C116.169 71.735 115.846 61.261 112.846 55.827C107.723 46.548 99.996 44 76.973 44C62.1 44 60.132 44.196 58.655 45.829ZM88.917 57.976C94.721 59.641 97.003 62.599 96.978 68.424C96.94 77.005 93.082 80 82.066 80H75V68.5V57H80.257C83.148 57 87.045 57.439 88.917 57.976ZM148 64.874C133.038 68.188 125.528 79.124 125.595 97.5C125.675 119.615 134.471 128.931 155.314 128.978C176.158 129.025 185.905 119.529 186.795 98.308C187.481 81.961 182.992 72.079 172.595 67.046C167.748 64.7 154.191 63.502 148 64.874ZM164.39 80.092C172.03 86.102 172.168 105.821 164.62 112.894C161.549 115.771 153.799 116.772 150.03 114.778C140.729 109.857 139.905 85.248 148.855 79.694C152.764 77.269 161.071 77.482 164.39 80.092ZM217.448 164.274C217.18 164.974 217.081 175.437 217.23 187.524L217.5 209.5L221.75 209.807L226 210.115V186.557V163H221.969C219.626 163 217.732 163.534 217.448 164.274ZM235.176 164.844C234.383 165.363 233.982 167.071 234.176 169.105C234.633 173.892 242.468 174.968 243.614 170.401C244.807 165.65 239.395 162.087 235.176 164.844ZM64.431 165.896C53.356 168.701 47.445 179.639 49.379 193.748C51.173 206.835 63.203 214.039 76.043 209.714C80.386 208.251 80.508 208.094 80.807 203.557L81.114 198.901L77.097 200.951C65.632 206.8 57.042 198.551 59.492 184.046C61.006 175.084 67.546 171.378 75.578 174.931C81.524 177.562 81.166 177.71 80.807 172.757C80.384 166.918 72.854 163.763 64.431 165.896ZM323 173.445C323 176.292 322.615 177 321.067 177C318.863 177 317.561 180.042 318.5 183C318.849 184.1 319.963 185 320.976 185C322.626 185 322.853 186.09 323.159 195.475C323.552 207.554 324.792 209.76 331.709 210.688C337.083 211.409 340 209.747 340 205.965C340 203.243 339.713 203 336.5 203H333V194.063V185.127L336.25 184.813C341.182 184.338 341.234 177.668 336.309 177.191C333.531 176.922 333.078 176.469 332.809 173.691C332.514 170.644 332.285 170.486 327.75 170.195L323 169.89V173.445ZM92.939 178.643C82.238 185.289 82.818 204.972 93.852 209.583C102.193 213.068 112.86 209.721 116.091 202.606C119.96 194.087 117.789 182.672 111.58 178.886C107.609 176.464 96.677 176.322 92.939 178.643ZM124.667 177.667C124.3 178.033 124 185.458 124 194.167V210H128.5H133L133.032 199.75C133.065 189.08 133.63 187.323 137.727 185.14C142.326 182.691 144 186.389 144 199V210H148.5H153V199.155C153 186.967 154.154 184.545 159.662 185.175L162.5 185.5L163 197.5L163.5 209.5H168H172.5L172.808 200C173.212 187.543 172.438 182.765 169.501 179.595C166.371 176.219 159.265 175.963 154.901 179.07L151.994 181.14L149.362 179.07C145.866 176.32 138.821 176.28 135.018 178.987C132.233 180.971 132.226 180.971 131.707 178.987C131.193 177.021 126.242 176.092 124.667 177.667ZM180.448 178.276C178.98 182.101 180.536 221.306 182.197 222.353C186.441 225.029 189.456 222.065 190 214.681C190.486 208.09 190.556 207.942 192.5 209.418C195.106 211.396 200.319 211.403 204.128 209.434C212.508 205.1 213.421 183.782 205.45 178.559C202.042 176.326 194.438 176.552 191.018 178.987C188.233 180.971 188.226 180.971 187.707 178.987C187.106 176.689 181.276 176.118 180.448 178.276ZM234.496 179.192C234.182 180.461 234.054 187.8 234.212 195.5L234.5 209.5L238.775 209.809L243.05 210.117L242.775 193.809L242.5 177.5L238.784 177.192C235.608 176.928 234.984 177.219 234.496 179.192ZM253.635 179.073C248.713 182.944 250.602 188.291 255.921 185.541C260.391 183.229 266.666 183.507 268.042 186.078C269.981 189.701 268.565 191 262.679 191C252.921 191 248.186 196.637 250.431 205.582C251.596 210.221 260.893 212.494 266.598 209.534C268.476 208.559 269.639 208.416 270.067 209.108C270.42 209.68 272.238 210.002 274.105 209.824L277.5 209.5L277.81 199C278.343 180.919 275.793 177 263.5 177C257.7 177 255.749 177.41 253.635 179.073ZM285.441 178.294C285.168 179.006 285.069 186.318 285.222 194.544L285.5 209.5L289.75 209.807L294 210.115V200.192C294 188.333 295.807 184.655 301.366 185.195L304.5 185.5L305 197.5L305.5 209.5H310H314.5L314.808 200C315.224 187.195 314.46 182.733 311.316 179.588C308.224 176.497 301.725 176.057 296.798 178.604C293.951 180.077 293.622 180.077 292.798 178.604C291.72 176.678 286.151 176.443 285.441 178.294ZM106.445 185.939C108.541 188.255 108.915 199.193 106.978 201.527C104.876 204.06 98.318 203.416 96.4 200.488C94.156 197.063 94.889 187.285 97.536 185.35C100.19 183.409 104.408 183.688 106.445 185.939ZM199.084 185.867C204.054 189.891 201.445 203 195.674 203C189.583 203 187.298 190.271 192.635 186.073C195.857 183.538 196.195 183.527 199.084 185.867ZM268.641 197.508C269.718 200.314 266.279 204 262.584 204C258.825 204 257.394 202 259.003 198.994C259.874 197.367 261.52 196.765 266.781 196.15C267.486 196.067 268.323 196.678 268.641 197.508Z" fill="white"/>
</svg>
